<mxfile host="Electron" modified="2024-07-20T16:23:45.419Z" agent="Mozilla/5.0 (Windows NT 10.0; Win64; x64) AppleWebKit/537.36 (KHTML, like Gecko) draw.io/21.7.5 Chrome/114.0.5735.289 Electron/25.8.1 Safari/537.36" etag="JKzOuuAhE8VBQy1m9Q6E" version="21.7.5" type="device">
  <diagram name="Page-1" id="8Cvl1WWkDyhwgarbgdlQ">
    <mxGraphModel dx="761" dy="329" grid="1" gridSize="10" guides="1" tooltips="1" connect="1" arrows="1" fold="1" page="1" pageScale="1" pageWidth="850" pageHeight="1100" math="0" shadow="0">
      <root>
        <mxCell id="0" />
        <mxCell id="1" parent="0" />
        <mxCell id="3gm48HW7OMUv2JIPXkFY-5" style="rounded=0;orthogonalLoop=1;jettySize=auto;html=1;entryX=0;entryY=0.5;entryDx=0;entryDy=0;" edge="1" parent="1" source="3gm48HW7OMUv2JIPXkFY-1" target="3gm48HW7OMUv2JIPXkFY-3">
          <mxGeometry relative="1" as="geometry" />
        </mxCell>
        <mxCell id="3gm48HW7OMUv2JIPXkFY-1" value="InitForm" style="rounded=0;whiteSpace=wrap;html=1;" vertex="1" parent="1">
          <mxGeometry x="80" y="190" width="70" height="30" as="geometry" />
        </mxCell>
        <mxCell id="3gm48HW7OMUv2JIPXkFY-6" style="rounded=0;orthogonalLoop=1;jettySize=auto;html=1;entryX=0;entryY=0.5;entryDx=0;entryDy=0;" edge="1" parent="1" source="3gm48HW7OMUv2JIPXkFY-3" target="3gm48HW7OMUv2JIPXkFY-4">
          <mxGeometry relative="1" as="geometry" />
        </mxCell>
        <mxCell id="3gm48HW7OMUv2JIPXkFY-22" value="&amp;nbsp;Login&amp;nbsp;" style="edgeLabel;html=1;align=center;verticalAlign=middle;resizable=0;points=[];" vertex="1" connectable="0" parent="3gm48HW7OMUv2JIPXkFY-6">
          <mxGeometry x="-0.1901" y="-1" relative="1" as="geometry">
            <mxPoint as="offset" />
          </mxGeometry>
        </mxCell>
        <mxCell id="3gm48HW7OMUv2JIPXkFY-9" style="rounded=0;orthogonalLoop=1;jettySize=auto;html=1;entryX=0.5;entryY=1;entryDx=0;entryDy=0;" edge="1" parent="1" source="3gm48HW7OMUv2JIPXkFY-3" target="3gm48HW7OMUv2JIPXkFY-7">
          <mxGeometry relative="1" as="geometry" />
        </mxCell>
        <mxCell id="3gm48HW7OMUv2JIPXkFY-3" value="LoginForm" style="rounded=0;whiteSpace=wrap;html=1;" vertex="1" parent="1">
          <mxGeometry x="180" y="190" width="70" height="30" as="geometry" />
        </mxCell>
        <mxCell id="3gm48HW7OMUv2JIPXkFY-15" style="rounded=0;orthogonalLoop=1;jettySize=auto;html=1;entryX=0;entryY=0.5;entryDx=0;entryDy=0;" edge="1" parent="1" source="3gm48HW7OMUv2JIPXkFY-4" target="3gm48HW7OMUv2JIPXkFY-10">
          <mxGeometry relative="1" as="geometry" />
        </mxCell>
        <mxCell id="3gm48HW7OMUv2JIPXkFY-16" style="rounded=0;orthogonalLoop=1;jettySize=auto;html=1;entryX=0;entryY=0.5;entryDx=0;entryDy=0;" edge="1" parent="1" source="3gm48HW7OMUv2JIPXkFY-4" target="3gm48HW7OMUv2JIPXkFY-11">
          <mxGeometry relative="1" as="geometry" />
        </mxCell>
        <mxCell id="3gm48HW7OMUv2JIPXkFY-17" style="rounded=0;orthogonalLoop=1;jettySize=auto;html=1;entryX=0;entryY=0.5;entryDx=0;entryDy=0;" edge="1" parent="1" source="3gm48HW7OMUv2JIPXkFY-4" target="3gm48HW7OMUv2JIPXkFY-12">
          <mxGeometry relative="1" as="geometry" />
        </mxCell>
        <mxCell id="3gm48HW7OMUv2JIPXkFY-18" style="rounded=0;orthogonalLoop=1;jettySize=auto;html=1;entryX=0;entryY=0.5;entryDx=0;entryDy=0;" edge="1" parent="1" source="3gm48HW7OMUv2JIPXkFY-4" target="3gm48HW7OMUv2JIPXkFY-14">
          <mxGeometry relative="1" as="geometry" />
        </mxCell>
        <mxCell id="3gm48HW7OMUv2JIPXkFY-19" style="rounded=0;orthogonalLoop=1;jettySize=auto;html=1;entryX=0;entryY=0.5;entryDx=0;entryDy=0;" edge="1" parent="1" source="3gm48HW7OMUv2JIPXkFY-4" target="3gm48HW7OMUv2JIPXkFY-13">
          <mxGeometry relative="1" as="geometry" />
        </mxCell>
        <mxCell id="3gm48HW7OMUv2JIPXkFY-4" value="MainForm" style="rounded=0;whiteSpace=wrap;html=1;" vertex="1" parent="1">
          <mxGeometry x="320" y="190" width="70" height="30" as="geometry" />
        </mxCell>
        <mxCell id="3gm48HW7OMUv2JIPXkFY-7" value="ForgotPasswordForm" style="rounded=0;whiteSpace=wrap;html=1;" vertex="1" parent="1">
          <mxGeometry x="150" y="130" width="130" height="30" as="geometry" />
        </mxCell>
        <mxCell id="3gm48HW7OMUv2JIPXkFY-46" style="rounded=0;orthogonalLoop=1;jettySize=auto;html=1;entryX=0.082;entryY=1.051;entryDx=0;entryDy=0;entryPerimeter=0;" edge="1" parent="1" source="3gm48HW7OMUv2JIPXkFY-10" target="3gm48HW7OMUv2JIPXkFY-44">
          <mxGeometry relative="1" as="geometry" />
        </mxCell>
        <mxCell id="3gm48HW7OMUv2JIPXkFY-51" style="rounded=0;orthogonalLoop=1;jettySize=auto;html=1;entryX=0.75;entryY=1;entryDx=0;entryDy=0;" edge="1" parent="1" source="3gm48HW7OMUv2JIPXkFY-10" target="3gm48HW7OMUv2JIPXkFY-50">
          <mxGeometry relative="1" as="geometry" />
        </mxCell>
        <mxCell id="3gm48HW7OMUv2JIPXkFY-55" style="rounded=0;orthogonalLoop=1;jettySize=auto;html=1;entryX=0;entryY=0.25;entryDx=0;entryDy=0;" edge="1" parent="1" source="3gm48HW7OMUv2JIPXkFY-10" target="3gm48HW7OMUv2JIPXkFY-53">
          <mxGeometry relative="1" as="geometry" />
        </mxCell>
        <mxCell id="3gm48HW7OMUv2JIPXkFY-10" value="BanHangForm" style="rounded=0;whiteSpace=wrap;html=1;" vertex="1" parent="1">
          <mxGeometry x="420" y="110" width="90" height="30" as="geometry" />
        </mxCell>
        <mxCell id="3gm48HW7OMUv2JIPXkFY-49" style="rounded=0;orthogonalLoop=1;jettySize=auto;html=1;entryX=0;entryY=0.629;entryDx=0;entryDy=0;entryPerimeter=0;exitX=1;exitY=0;exitDx=0;exitDy=0;" edge="1" parent="1" source="3gm48HW7OMUv2JIPXkFY-11" target="3gm48HW7OMUv2JIPXkFY-47">
          <mxGeometry relative="1" as="geometry" />
        </mxCell>
        <mxCell id="3gm48HW7OMUv2JIPXkFY-11" value="DonHangForm" style="rounded=0;whiteSpace=wrap;html=1;" vertex="1" parent="1">
          <mxGeometry x="420" y="150" width="90" height="30" as="geometry" />
        </mxCell>
        <mxCell id="3gm48HW7OMUv2JIPXkFY-38" style="rounded=0;orthogonalLoop=1;jettySize=auto;html=1;entryX=0;entryY=0.25;entryDx=0;entryDy=0;exitX=1;exitY=0.25;exitDx=0;exitDy=0;" edge="1" parent="1" source="3gm48HW7OMUv2JIPXkFY-12" target="3gm48HW7OMUv2JIPXkFY-37">
          <mxGeometry relative="1" as="geometry" />
        </mxCell>
        <mxCell id="3gm48HW7OMUv2JIPXkFY-12" value="LinhKienForm" style="rounded=0;whiteSpace=wrap;html=1;" vertex="1" parent="1">
          <mxGeometry x="420" y="190" width="90" height="30" as="geometry" />
        </mxCell>
        <mxCell id="3gm48HW7OMUv2JIPXkFY-13" value="ThongKeForm" style="rounded=0;whiteSpace=wrap;html=1;" vertex="1" parent="1">
          <mxGeometry x="420" y="230" width="90" height="30" as="geometry" />
        </mxCell>
        <mxCell id="3gm48HW7OMUv2JIPXkFY-14" value="QuanLyForm" style="rounded=0;whiteSpace=wrap;html=1;" vertex="1" parent="1">
          <mxGeometry x="420" y="270" width="90" height="30" as="geometry" />
        </mxCell>
        <mxCell id="3gm48HW7OMUv2JIPXkFY-20" value="" style="endArrow=classic;html=1;rounded=0;exitX=0.37;exitY=1.051;exitDx=0;exitDy=0;exitPerimeter=0;entryX=0.5;entryY=1;entryDx=0;entryDy=0;" edge="1" parent="1" source="3gm48HW7OMUv2JIPXkFY-4" target="3gm48HW7OMUv2JIPXkFY-3">
          <mxGeometry width="50" height="50" relative="1" as="geometry">
            <mxPoint x="290" y="290" as="sourcePoint" />
            <mxPoint x="220" y="260" as="targetPoint" />
            <Array as="points">
              <mxPoint x="346" y="260" />
              <mxPoint x="215" y="260" />
            </Array>
          </mxGeometry>
        </mxCell>
        <mxCell id="3gm48HW7OMUv2JIPXkFY-21" value="&amp;nbsp;Log out&amp;nbsp;" style="edgeLabel;html=1;align=center;verticalAlign=middle;resizable=0;points=[];" vertex="1" connectable="0" parent="3gm48HW7OMUv2JIPXkFY-20">
          <mxGeometry x="0.0136" y="2" relative="1" as="geometry">
            <mxPoint y="-2" as="offset" />
          </mxGeometry>
        </mxCell>
        <mxCell id="3gm48HW7OMUv2JIPXkFY-24" value="AboutForm" style="rounded=0;whiteSpace=wrap;html=1;" vertex="1" parent="1">
          <mxGeometry x="340" y="70" width="90" height="30" as="geometry" />
        </mxCell>
        <mxCell id="3gm48HW7OMUv2JIPXkFY-25" style="rounded=0;orthogonalLoop=1;jettySize=auto;html=1;entryX=0.25;entryY=1;entryDx=0;entryDy=0;exitX=0.5;exitY=0;exitDx=0;exitDy=0;" edge="1" parent="1" source="3gm48HW7OMUv2JIPXkFY-4" target="3gm48HW7OMUv2JIPXkFY-24">
          <mxGeometry relative="1" as="geometry">
            <mxPoint x="300" y="190" as="sourcePoint" />
            <mxPoint x="353" y="125" as="targetPoint" />
          </mxGeometry>
        </mxCell>
        <mxCell id="3gm48HW7OMUv2JIPXkFY-27" value="ChangePasswordForm" style="rounded=0;whiteSpace=wrap;html=1;" vertex="1" parent="1">
          <mxGeometry x="190" y="70" width="140" height="30" as="geometry" />
        </mxCell>
        <mxCell id="3gm48HW7OMUv2JIPXkFY-28" style="rounded=0;orthogonalLoop=1;jettySize=auto;html=1;entryX=0.75;entryY=1;entryDx=0;entryDy=0;exitX=0.25;exitY=0;exitDx=0;exitDy=0;" edge="1" parent="1" target="3gm48HW7OMUv2JIPXkFY-27" source="3gm48HW7OMUv2JIPXkFY-4">
          <mxGeometry relative="1" as="geometry">
            <mxPoint x="295" y="160" as="sourcePoint" />
            <mxPoint x="293" y="95" as="targetPoint" />
          </mxGeometry>
        </mxCell>
        <mxCell id="3gm48HW7OMUv2JIPXkFY-29" value="KhachHangForm" style="rounded=0;whiteSpace=wrap;html=1;" vertex="1" parent="1">
          <mxGeometry x="545" y="260" width="110" height="30" as="geometry" />
        </mxCell>
        <mxCell id="3gm48HW7OMUv2JIPXkFY-30" value="NhanVienForm" style="rounded=0;whiteSpace=wrap;html=1;" vertex="1" parent="1">
          <mxGeometry x="540" y="300" width="110" height="30" as="geometry" />
        </mxCell>
        <mxCell id="3gm48HW7OMUv2JIPXkFY-31" value="TaiKhoanForm" style="rounded=0;whiteSpace=wrap;html=1;" vertex="1" parent="1">
          <mxGeometry x="530" y="340" width="110" height="30" as="geometry" />
        </mxCell>
        <mxCell id="3gm48HW7OMUv2JIPXkFY-33" style="rounded=0;orthogonalLoop=1;jettySize=auto;html=1;entryX=0;entryY=0.5;entryDx=0;entryDy=0;exitX=1;exitY=0.25;exitDx=0;exitDy=0;" edge="1" parent="1" source="3gm48HW7OMUv2JIPXkFY-14" target="3gm48HW7OMUv2JIPXkFY-29">
          <mxGeometry relative="1" as="geometry">
            <mxPoint x="377" y="230" as="sourcePoint" />
            <mxPoint x="430" y="295" as="targetPoint" />
          </mxGeometry>
        </mxCell>
        <mxCell id="3gm48HW7OMUv2JIPXkFY-35" style="rounded=0;orthogonalLoop=1;jettySize=auto;html=1;entryX=0;entryY=0.333;entryDx=0;entryDy=0;exitX=1;exitY=1;exitDx=0;exitDy=0;entryPerimeter=0;" edge="1" parent="1" source="3gm48HW7OMUv2JIPXkFY-14" target="3gm48HW7OMUv2JIPXkFY-30">
          <mxGeometry relative="1" as="geometry">
            <mxPoint x="520" y="295" as="sourcePoint" />
            <mxPoint x="550" y="295" as="targetPoint" />
          </mxGeometry>
        </mxCell>
        <mxCell id="3gm48HW7OMUv2JIPXkFY-36" style="rounded=0;orthogonalLoop=1;jettySize=auto;html=1;entryX=0;entryY=0.25;entryDx=0;entryDy=0;exitX=0.826;exitY=1;exitDx=0;exitDy=0;exitPerimeter=0;" edge="1" parent="1" source="3gm48HW7OMUv2JIPXkFY-14" target="3gm48HW7OMUv2JIPXkFY-31">
          <mxGeometry relative="1" as="geometry">
            <mxPoint x="495" y="302" as="sourcePoint" />
            <mxPoint x="540" y="320" as="targetPoint" />
          </mxGeometry>
        </mxCell>
        <mxCell id="3gm48HW7OMUv2JIPXkFY-37" value="LoaiLinhKienForm" style="rounded=0;whiteSpace=wrap;html=1;" vertex="1" parent="1">
          <mxGeometry x="555" y="220" width="110" height="30" as="geometry" />
        </mxCell>
        <mxCell id="3gm48HW7OMUv2JIPXkFY-39" style="rounded=0;orthogonalLoop=1;jettySize=auto;html=1;entryX=1.003;entryY=0.638;entryDx=0;entryDy=0;entryPerimeter=0;exitX=0;exitY=0.638;exitDx=0;exitDy=0;exitPerimeter=0;" edge="1" parent="1" source="3gm48HW7OMUv2JIPXkFY-37" target="3gm48HW7OMUv2JIPXkFY-12">
          <mxGeometry relative="1" as="geometry">
            <mxPoint x="530" y="220" as="sourcePoint" />
            <mxPoint x="550" y="208" as="targetPoint" />
            <Array as="points" />
          </mxGeometry>
        </mxCell>
        <mxCell id="3gm48HW7OMUv2JIPXkFY-40" value="ThongTinDonHangForm" style="rounded=0;whiteSpace=wrap;html=1;" vertex="1" parent="1">
          <mxGeometry x="555" y="170" width="140" height="30" as="geometry" />
        </mxCell>
        <mxCell id="3gm48HW7OMUv2JIPXkFY-41" style="rounded=0;orthogonalLoop=1;jettySize=auto;html=1;entryX=0;entryY=0.5;entryDx=0;entryDy=0;exitX=1;exitY=0.75;exitDx=0;exitDy=0;" edge="1" parent="1" source="3gm48HW7OMUv2JIPXkFY-11" target="3gm48HW7OMUv2JIPXkFY-40">
          <mxGeometry relative="1" as="geometry">
            <mxPoint x="520" y="208" as="sourcePoint" />
            <mxPoint x="550" y="208" as="targetPoint" />
          </mxGeometry>
        </mxCell>
        <mxCell id="3gm48HW7OMUv2JIPXkFY-48" style="rounded=0;orthogonalLoop=1;jettySize=auto;html=1;entryX=0.25;entryY=0;entryDx=0;entryDy=0;" edge="1" parent="1" source="3gm48HW7OMUv2JIPXkFY-44" target="3gm48HW7OMUv2JIPXkFY-47">
          <mxGeometry relative="1" as="geometry" />
        </mxCell>
        <mxCell id="3gm48HW7OMUv2JIPXkFY-44" value="ChoosePTThanhToanForm" style="rounded=0;whiteSpace=wrap;html=1;" vertex="1" parent="1">
          <mxGeometry x="490" y="30" width="160" height="30" as="geometry" />
        </mxCell>
        <mxCell id="3gm48HW7OMUv2JIPXkFY-47" value="ThanhToanDHForm" style="rounded=0;whiteSpace=wrap;html=1;" vertex="1" parent="1">
          <mxGeometry x="535" y="80" width="160" height="30" as="geometry" />
        </mxCell>
        <mxCell id="3gm48HW7OMUv2JIPXkFY-50" value="ThemLinhKienForm" style="rounded=0;whiteSpace=wrap;html=1;" vertex="1" parent="1">
          <mxGeometry x="360" y="30" width="120" height="30" as="geometry" />
        </mxCell>
        <mxCell id="3gm48HW7OMUv2JIPXkFY-53" value="XuatHoaDonForm" style="rounded=0;whiteSpace=wrap;html=1;" vertex="1" parent="1">
          <mxGeometry x="570" y="130" width="110" height="30" as="geometry" />
        </mxCell>
        <mxCell id="3gm48HW7OMUv2JIPXkFY-54" style="rounded=0;orthogonalLoop=1;jettySize=auto;html=1;entryX=0;entryY=0.5;entryDx=0;entryDy=0;exitX=1;exitY=0.25;exitDx=0;exitDy=0;" edge="1" parent="1" source="3gm48HW7OMUv2JIPXkFY-11" target="3gm48HW7OMUv2JIPXkFY-53">
          <mxGeometry relative="1" as="geometry">
            <mxPoint x="520" y="183" as="sourcePoint" />
            <mxPoint x="565" y="195" as="targetPoint" />
          </mxGeometry>
        </mxCell>
      </root>
    </mxGraphModel>
  </diagram>
</mxfile>
